<svg xmlns="http://www.w3.org/2000/svg" xmlns:xlink="http://www.w3.org/1999/xlink" width="120" zoomAndPan="magnify" viewBox="0 0 90 112.499997" height="150" preserveAspectRatio="xMidYMid meet" version="1.0"><defs><clipPath id="0a1fc776c5"><path d="M 3.542969 5.851562 L 89.800781 5.851562 L 89.800781 105.90625 L 3.542969 105.90625 Z M 3.542969 5.851562 " clip-rule="nonzero"/></clipPath></defs><g clip-path="url(#0a1fc776c5)"><path fill="#355958" d="M 39.800781 5.851562 C 36.054688 5.851562 32.898438 8.40625 32 11.855469 L 9.589844 11.855469 C 6.257812 11.855469 3.546875 14.546875 3.546875 17.859375 L 3.546875 95.902344 C 3.546875 99.210938 6.257812 101.90625 9.589844 101.90625 L 58.003906 101.90625 C 61.363281 104.402344 65.515625 105.90625 70.015625 105.90625 C 81.089844 105.90625 90.15625 96.902344 90.15625 85.894531 C 90.15625 76.980469 84.203125 69.378906 76.054688 66.816406 L 76.054688 17.859375 C 76.054688 14.546875 73.34375 11.855469 70.015625 11.855469 L 47.601562 11.855469 C 46.703125 8.40625 43.546875 5.851562 39.800781 5.851562 Z M 39.800781 9.851562 C 42.023438 9.851562 43.828125 11.648438 43.828125 13.855469 C 43.828125 14.960938 44.730469 15.855469 45.84375 15.855469 L 53.898438 15.855469 L 53.898438 21.859375 C 53.898438 22.964844 52.996094 23.859375 51.886719 23.859375 L 27.714844 23.859375 C 26.605469 23.859375 25.703125 22.964844 25.703125 21.859375 L 25.703125 15.855469 L 33.757812 15.855469 C 34.871094 15.855469 35.773438 14.960938 35.773438 13.855469 C 35.773438 11.648438 37.578125 9.851562 39.800781 9.851562 Z M 17.644531 41.871094 L 61.957031 41.871094 C 63.070312 41.871094 63.972656 42.765625 63.972656 43.871094 C 63.972656 44.980469 63.070312 45.875 61.957031 45.875 L 17.644531 45.875 C 16.53125 45.875 15.628906 44.980469 15.628906 43.871094 C 15.628906 42.765625 16.53125 41.871094 17.644531 41.871094 Z M 17.644531 53.878906 L 61.957031 53.878906 C 63.070312 53.878906 63.972656 54.773438 63.972656 55.878906 C 63.972656 56.984375 63.070312 57.878906 61.957031 57.878906 L 17.644531 57.878906 C 16.53125 57.878906 15.628906 56.984375 15.628906 55.878906 C 15.628906 54.773438 16.53125 53.878906 17.644531 53.878906 Z M 17.644531 65.882812 L 49.871094 65.882812 C 50.984375 65.882812 51.886719 66.777344 51.886719 67.886719 C 51.886719 68.992188 50.984375 69.886719 49.871094 69.886719 L 17.644531 69.886719 C 16.53125 69.886719 15.628906 68.992188 15.628906 67.886719 C 15.628906 66.777344 16.53125 65.882812 17.644531 65.882812 Z M 70.015625 69.886719 C 78.875 69.886719 86.128906 77.089844 86.128906 85.894531 C 86.128906 94.699219 78.875 101.90625 70.015625 101.90625 C 61.152344 101.90625 53.898438 94.699219 53.898438 85.894531 C 53.898438 77.089844 61.152344 69.886719 70.015625 69.886719 Z M 68 73.890625 L 68 84.894531 L 60.75 90.296875 L 63.164062 93.5 L 72.027344 86.894531 L 72.027344 73.890625 Z M 17.644531 77.890625 L 43.828125 77.890625 C 44.941406 77.890625 45.84375 78.785156 45.84375 79.890625 C 45.84375 81 44.941406 81.894531 43.828125 81.894531 L 17.644531 81.894531 C 16.53125 81.894531 15.628906 81 15.628906 79.890625 C 15.628906 78.785156 16.53125 77.890625 17.644531 77.890625 Z M 17.644531 77.890625 " fill-opacity="1" fill-rule="nonzero"/></g></svg>