<svg xmlns="http://www.w3.org/2000/svg" xmlns:xlink="http://www.w3.org/1999/xlink" width="120" zoomAndPan="magnify" viewBox="0 0 90 112.499997" height="150" preserveAspectRatio="xMidYMid meet" version="1.0"><defs><clipPath id="7402a2c2e9"><path d="M 1.8125 5.308594 L 88.429688 5.308594 L 88.429688 103.121094 L 1.8125 103.121094 Z M 1.8125 5.308594 " clip-rule="nonzero"/></clipPath></defs><path fill="#fffff9" d="M 13.5 79.480469 L 76.742188 79.480469 L 76.742188 97.515625 L 13.5 97.515625 Z M 13.5 79.480469 " fill-opacity="1" fill-rule="nonzero"/><path fill="#fffff9" d="M 76.742188 28.515625 L 76.742188 38.730469 L 13.5 38.730469 L 13.5 8.738281 L 60.066406 8.738281 C 60.304688 8.738281 60.5 8.933594 60.5 9.171875 L 60.5 24.183594 C 60.5 26.339844 62.246094 28.105469 64.425781 28.105469 L 76.308594 28.105469 C 76.546875 28.085938 76.742188 28.28125 76.742188 28.515625 Z M 76.742188 28.515625 " fill-opacity="1" fill-rule="nonzero"/><g clip-path="url(#7402a2c2e9)"><path fill="#355958" d="M 82.535156 38.710938 L 80.472656 38.710938 L 80.472656 28.457031 C 80.472656 28.222656 80.394531 27.988281 80.238281 27.8125 L 76.742188 23.832031 L 63.484375 8.71875 L 60.792969 5.640625 C 60.597656 5.425781 60.34375 5.308594 60.046875 5.308594 L 13.695312 5.308594 C 11.515625 5.308594 9.769531 7.054688 9.769531 9.230469 L 9.769531 38.710938 L 7.707031 38.710938 C 4.445312 38.710938 1.8125 41.335938 1.8125 44.589844 L 1.8125 73.601562 C 1.8125 76.855469 4.445312 79.480469 7.707031 79.480469 L 9.769531 79.480469 L 9.769531 99.199219 C 9.769531 101.355469 11.515625 103.121094 13.695312 103.121094 L 76.546875 103.121094 C 78.707031 103.121094 80.472656 101.355469 80.472656 99.199219 L 80.472656 79.480469 L 82.535156 79.480469 C 85.796875 79.480469 88.429688 76.855469 88.429688 73.601562 L 88.429688 44.589844 C 88.429688 41.335938 85.796875 38.710938 82.535156 38.710938 Z M 13.5 8.71875 L 60.5 8.71875 L 60.5 24.164062 C 60.5 26.320312 62.246094 28.085938 64.425781 28.085938 L 76.742188 28.085938 L 76.742188 38.710938 L 13.5 38.710938 Z M 76.742188 97.515625 L 13.5 97.515625 L 13.5 79.480469 L 76.742188 79.480469 Z M 76.742188 97.515625 " fill-opacity="1" fill-rule="nonzero"/></g><path fill="#fffff9" d="M 28.230469 55.761719 C 28.230469 60.566406 25.007812 63.074219 21.472656 63.484375 C 20.15625 63.625 19.175781 63.664062 17.664062 63.664062 L 14.835938 63.664062 L 14.835938 72.207031 L 8.472656 72.207031 L 8.472656 47.863281 L 17.664062 47.863281 C 19.175781 47.863281 20.175781 47.902344 21.472656 48.039062 C 25.027344 48.453125 28.230469 50.960938 28.230469 55.761719 Z M 21.589844 55.761719 C 21.589844 53.921875 20.628906 52.980469 19.019531 52.84375 C 18.566406 52.804688 17.996094 52.804688 17.328125 52.804688 L 14.835938 52.804688 L 14.835938 58.722656 L 17.308594 58.722656 C 17.976562 58.722656 18.546875 58.722656 19 58.683594 C 20.628906 58.546875 21.589844 57.605469 21.589844 55.761719 Z M 21.589844 55.761719 " fill-opacity="1" fill-rule="nonzero"/><path fill="#fffff9" d="M 56.550781 59.722656 C 56.550781 67.347656 51.878906 71.445312 46.222656 72.070312 C 44.984375 72.207031 44.414062 72.207031 43.117188 72.207031 L 33.886719 72.207031 L 33.886719 47.863281 L 43.117188 47.863281 C 44.433594 47.863281 44.984375 47.863281 46.222656 48 C 51.898438 48.628906 56.550781 52.097656 56.550781 59.722656 Z M 49.914062 59.820312 C 49.914062 55.488281 47.714844 53.15625 44.53125 52.863281 C 43.726562 52.785156 43.15625 52.785156 42.234375 52.785156 L 40.25 52.785156 L 40.25 67.25 L 42.234375 67.25 C 43.15625 67.25 43.726562 67.25 44.53125 67.171875 C 47.714844 66.917969 49.914062 64.152344 49.914062 59.820312 Z M 49.914062 59.820312 " fill-opacity="1" fill-rule="nonzero"/><path fill="#fffff9" d="M 69.398438 57.527344 L 80.316406 57.527344 L 80.316406 62.46875 L 69.398438 62.46875 L 69.398438 72.207031 L 63.03125 72.207031 L 63.03125 47.863281 L 81.378906 47.863281 L 81.378906 52.804688 L 69.398438 52.804688 Z M 69.398438 57.527344 " fill-opacity="1" fill-rule="nonzero"/></svg>