<svg xmlns="http://www.w3.org/2000/svg" xmlns:xlink="http://www.w3.org/1999/xlink" width="120" zoomAndPan="magnify" viewBox="0 0 90 89.999999" height="120" preserveAspectRatio="xMidYMid meet" version="1.0"><defs><clipPath id="23d3c3e19b"><path d="M 8 3 L 86 3 L 86 89.515625 L 8 89.515625 Z M 8 3 " clip-rule="nonzero"/></clipPath></defs><rect x="-9" width="108" fill="#ffffff" y="-9" height="107.999999" fill-opacity="1"/><rect x="-9" width="108" fill="#ffffff" y="-9" height="107.999999" fill-opacity="1"/><rect x="-9" width="108" fill="#ffffff" y="-9" height="107.999999" fill-opacity="1"/><g clip-path="url(#23d3c3e19b)"><path fill="#3f8887" d="M 85.0625 84.253906 L 66.277344 59.550781 C 66.757812 59.03125 67.21875 58.5 67.667969 57.949219 C 68.113281 57.402344 68.539062 56.839844 68.949219 56.265625 C 69.359375 55.6875 69.753906 55.101562 70.125 54.5 C 70.496094 53.902344 70.851562 53.289062 71.183594 52.667969 C 71.519531 52.046875 71.832031 51.414062 72.125 50.769531 C 72.417969 50.128906 72.691406 49.476562 72.941406 48.820312 C 73.195312 48.160156 73.425781 47.492188 73.632812 46.820312 C 73.84375 46.144531 74.03125 45.464844 74.195312 44.78125 C 74.363281 44.09375 74.507812 43.402344 74.628906 42.710938 C 74.75 42.015625 74.851562 41.316406 74.925781 40.617188 C 75.003906 39.914062 75.058594 39.210938 75.09375 38.507812 C 75.125 37.800781 75.132812 37.097656 75.121094 36.390625 C 75.109375 35.6875 75.074219 34.984375 75.015625 34.28125 C 74.960938 33.578125 74.878906 32.875 74.777344 32.179688 C 74.675781 31.480469 74.550781 30.785156 74.40625 30.097656 C 74.257812 29.40625 74.089844 28.722656 73.902344 28.042969 C 73.710938 27.363281 73.5 26.691406 73.265625 26.023438 C 73.03125 25.359375 72.777344 24.699219 72.503906 24.050781 C 72.230469 23.398438 71.933594 22.757812 71.617188 22.128906 C 71.300781 21.496094 70.964844 20.875 70.609375 20.265625 C 70.253906 19.65625 69.878906 19.054688 69.488281 18.46875 C 69.09375 17.882812 68.679688 17.308594 68.25 16.75 C 67.820312 16.1875 67.371094 15.640625 66.90625 15.109375 C 66.441406 14.578125 65.960938 14.058594 65.460938 13.558594 C 64.964844 13.054688 64.449219 12.570312 63.921875 12.101562 C 63.390625 11.628906 62.847656 11.179688 62.289062 10.742188 C 61.730469 10.308594 61.160156 9.890625 60.574219 9.492188 C 59.992188 9.09375 59.394531 8.710938 58.785156 8.351562 C 58.175781 7.988281 57.558594 7.648438 56.925781 7.324219 C 56.296875 7 55.65625 6.699219 55.003906 6.417969 C 54.355469 6.136719 53.695312 5.875 53.03125 5.632812 C 52.363281 5.394531 51.691406 5.175781 51.007812 4.976562 C 50.328125 4.777344 49.640625 4.601562 48.949219 4.449219 C 48.257812 4.292969 47.5625 4.160156 46.863281 4.050781 C 46.160156 3.9375 45.457031 3.851562 44.75 3.785156 C 44.046875 3.71875 43.339844 3.675781 42.628906 3.652344 C 41.921875 3.628906 41.210938 3.632812 40.503906 3.65625 C 39.792969 3.675781 39.085938 3.722656 38.378906 3.789062 C 37.675781 3.859375 36.972656 3.949219 36.273438 4.058594 C 35.570312 4.171875 34.875 4.304688 34.183594 4.460938 C 33.492188 4.617188 32.804688 4.796875 32.125 4.996094 C 31.445312 5.195312 30.773438 5.414062 30.105469 5.65625 C 29.441406 5.898438 28.78125 6.160156 28.132812 6.445312 C 27.484375 6.726562 26.84375 7.03125 26.214844 7.355469 C 25.582031 7.679688 24.964844 8.023438 24.355469 8.386719 C 23.746094 8.746094 23.152344 9.128906 22.566406 9.53125 C 21.984375 9.929688 21.414062 10.347656 20.855469 10.785156 C 20.300781 11.222656 19.757812 11.675781 19.226562 12.144531 C 18.699219 12.617188 18.1875 13.101562 17.691406 13.605469 C 17.191406 14.109375 16.710938 14.625 16.25 15.160156 C 15.785156 15.691406 15.335938 16.242188 14.910156 16.800781 C 14.480469 17.363281 14.070312 17.9375 13.675781 18.523438 C 13.285156 19.113281 12.910156 19.710938 12.554688 20.324219 C 12.203125 20.933594 11.867188 21.554688 11.550781 22.1875 C 11.238281 22.820312 10.945312 23.460938 10.667969 24.113281 C 10.394531 24.761719 10.144531 25.421875 9.910156 26.085938 C 9.679688 26.753906 9.46875 27.425781 9.28125 28.105469 C 9.09375 28.785156 8.925781 29.472656 8.78125 30.164062 C 8.636719 30.851562 8.511719 31.546875 8.410156 32.246094 C 8.3125 32.945312 8.234375 33.644531 8.175781 34.347656 C 8.121094 35.050781 8.085938 35.753906 8.078125 36.460938 C 8.066406 37.164062 8.078125 37.871094 8.109375 38.574219 C 8.144531 39.277344 8.199219 39.980469 8.28125 40.683594 C 8.359375 41.382812 8.460938 42.082031 8.582031 42.777344 C 8.707031 43.46875 8.851562 44.160156 9.019531 44.84375 C 9.1875 45.53125 9.375 46.210938 9.585938 46.882812 C 9.796875 47.558594 10.027344 48.222656 10.28125 48.882812 C 10.535156 49.539062 10.808594 50.191406 11.101562 50.832031 C 11.398438 51.472656 11.710938 52.105469 12.046875 52.726562 C 12.382812 53.347656 12.738281 53.960938 13.109375 54.558594 C 13.484375 55.15625 13.878906 55.746094 14.289062 56.320312 C 14.699219 56.894531 15.128906 57.453125 15.578125 58.003906 C 16.023438 58.550781 16.488281 59.082031 16.96875 59.601562 C 17.449219 60.117188 17.945312 60.621094 18.460938 61.109375 C 18.972656 61.59375 19.5 62.066406 20.042969 62.519531 C 20.589844 62.972656 21.144531 63.40625 21.714844 63.824219 C 22.289062 64.246094 22.871094 64.644531 23.46875 65.027344 C 24.0625 65.40625 24.671875 65.769531 25.292969 66.113281 C 25.910156 66.457031 26.542969 66.777344 27.179688 67.082031 C 27.820312 67.386719 28.472656 67.667969 29.128906 67.929688 C 29.789062 68.191406 30.453125 68.433594 31.128906 68.65625 C 31.800781 68.875 32.480469 69.074219 33.167969 69.25 C 33.855469 69.429688 34.546875 69.582031 35.242188 69.71875 C 35.9375 69.851562 36.636719 69.964844 37.339844 70.050781 C 38.042969 70.140625 38.75 70.210938 39.457031 70.253906 C 40.164062 70.300781 40.875 70.324219 41.582031 70.324219 C 42.292969 70.324219 43 70.300781 43.707031 70.257812 C 44.417969 70.210938 45.121094 70.144531 45.824219 70.058594 C 46.53125 69.96875 47.230469 69.855469 47.925781 69.722656 C 48.621094 69.589844 49.3125 69.4375 50 69.257812 C 50.6875 69.082031 51.367188 68.882812 52.042969 68.664062 C 52.714844 68.445312 53.382812 68.203125 54.039062 67.941406 C 54.699219 67.679688 55.347656 67.398438 55.988281 67.097656 C 56.628906 66.792969 57.257812 66.472656 57.878906 66.128906 C 58.5 65.785156 59.109375 65.425781 59.703125 65.042969 C 60.300781 64.664062 60.886719 64.261719 61.457031 63.84375 L 79.917969 88.128906 C 80.179688 88.46875 80.492188 88.75 80.863281 88.964844 C 81.234375 89.183594 81.632812 89.320312 82.058594 89.378906 C 82.484375 89.441406 82.90625 89.414062 83.324219 89.308594 C 83.738281 89.199219 84.121094 89.019531 84.460938 88.761719 C 84.804688 88.503906 85.085938 88.191406 85.304688 87.820312 C 85.523438 87.453125 85.660156 87.054688 85.722656 86.632812 C 85.78125 86.207031 85.757812 85.789062 85.648438 85.375 C 85.539062 84.960938 85.355469 84.585938 85.097656 84.242188 Z M 13.507812 36.976562 C 13.507812 36.058594 13.550781 35.148438 13.640625 34.234375 C 13.730469 33.324219 13.867188 32.421875 14.046875 31.523438 C 14.226562 30.625 14.449219 29.738281 14.714844 28.863281 C 14.980469 27.984375 15.292969 27.125 15.644531 26.28125 C 15.996094 25.433594 16.390625 24.605469 16.824219 23.800781 C 17.257812 22.992188 17.730469 22.207031 18.242188 21.445312 C 18.75 20.6875 19.300781 19.953125 19.882812 19.242188 C 20.46875 18.535156 21.085938 17.859375 21.734375 17.210938 C 22.386719 16.5625 23.066406 15.949219 23.777344 15.371094 C 24.488281 14.789062 25.226562 14.242188 25.992188 13.734375 C 26.757812 13.226562 27.546875 12.757812 28.359375 12.324219 C 29.171875 11.894531 30.003906 11.503906 30.851562 11.152344 C 31.703125 10.800781 32.566406 10.492188 33.449219 10.226562 C 34.328125 9.960938 35.222656 9.738281 36.125 9.5625 C 37.027344 9.382812 37.9375 9.25 38.851562 9.160156 C 39.769531 9.070312 40.6875 9.023438 41.605469 9.023438 C 42.527344 9.023438 43.445312 9.070312 44.363281 9.160156 C 45.277344 9.246094 46.1875 9.382812 47.089844 9.5625 C 47.992188 9.738281 48.882812 9.960938 49.765625 10.226562 C 50.644531 10.492188 51.511719 10.800781 52.363281 11.152344 C 53.210938 11.5 54.042969 11.890625 54.855469 12.324219 C 55.667969 12.753906 56.457031 13.226562 57.222656 13.734375 C 57.984375 14.242188 58.726562 14.785156 59.4375 15.367188 C 60.148438 15.949219 60.828125 16.5625 61.480469 17.210938 C 62.128906 17.855469 62.746094 18.535156 63.332031 19.242188 C 63.914062 19.949219 64.464844 20.683594 64.976562 21.445312 C 65.484375 22.207031 65.957031 22.988281 66.394531 23.796875 C 66.828125 24.605469 67.21875 25.429688 67.570312 26.277344 C 67.925781 27.121094 68.234375 27.984375 68.5 28.859375 C 68.769531 29.734375 68.992188 30.621094 69.171875 31.519531 C 69.351562 32.417969 69.484375 33.320312 69.574219 34.234375 C 69.664062 35.144531 69.710938 36.058594 69.710938 36.972656 C 69.710938 37.886719 69.664062 38.800781 69.574219 39.710938 C 69.484375 40.625 69.351562 41.527344 69.171875 42.425781 C 68.992188 43.324219 68.765625 44.210938 68.5 45.085938 C 68.234375 45.960938 67.921875 46.824219 67.570312 47.667969 C 67.21875 48.515625 66.824219 49.339844 66.390625 50.148438 C 65.957031 50.953125 65.484375 51.738281 64.972656 52.5 C 64.460938 53.261719 63.914062 53.996094 63.332031 54.703125 C 62.746094 55.410156 62.128906 56.089844 61.476562 56.734375 C 60.828125 57.382812 60.144531 57.996094 59.433594 58.578125 C 58.722656 59.15625 57.984375 59.703125 57.21875 60.210938 C 56.453125 60.71875 55.664062 61.1875 54.851562 61.621094 C 54.042969 62.050781 53.210938 62.441406 52.359375 62.792969 C 51.507812 63.144531 50.644531 63.449219 49.761719 63.714844 C 48.882812 63.980469 47.988281 64.203125 47.085938 64.382812 C 46.183594 64.5625 45.273438 64.695312 44.359375 64.785156 C 43.441406 64.875 42.523438 64.917969 41.605469 64.917969 C 40.683594 64.917969 39.765625 64.875 38.851562 64.785156 C 37.933594 64.695312 37.027344 64.558594 36.121094 64.382812 C 35.21875 64.203125 34.328125 63.980469 33.449219 63.714844 C 32.566406 63.449219 31.703125 63.140625 30.851562 62.789062 C 30.003906 62.441406 29.171875 62.050781 28.359375 61.617188 C 27.546875 61.1875 26.761719 60.71875 25.996094 60.207031 C 25.230469 59.699219 24.492188 59.15625 23.78125 58.574219 C 23.070312 57.996094 22.386719 57.378906 21.738281 56.734375 C 21.085938 56.085938 20.46875 55.410156 19.886719 54.703125 C 19.300781 53.992188 18.753906 53.261719 18.242188 52.5 C 17.730469 51.738281 17.257812 50.953125 16.824219 50.148438 C 16.390625 49.339844 16 48.515625 15.644531 47.667969 C 15.292969 46.824219 14.984375 45.960938 14.71875 45.085938 C 14.449219 44.210938 14.226562 43.324219 14.046875 42.425781 C 13.867188 41.527344 13.730469 40.625 13.640625 39.714844 C 13.550781 38.804688 13.507812 37.890625 13.507812 36.976562 Z M 13.507812 36.976562 " fill-opacity="1" fill-rule="nonzero"/></g></svg>