<svg width="10" height="10" viewBox="0 0 10 10" fill="none" xmlns="http://www.w3.org/2000/svg">
<g id="flat-color-icons:google" clip-path="url(#clip0_6_34)">
<path id="Vector" d="M8.78337 4.01832H8.47048V4.0022H4.97448V5.55598H7.16977C6.8495 6.46047 5.9889 7.10976 4.97448 7.10976C3.68736 7.10976 2.64381 6.0662 2.64381 4.77909C2.64381 3.49198 3.68736 2.44842 4.97448 2.44842C5.5686 2.44842 6.10912 2.67255 6.52068 3.03866L7.6194 1.93994C6.92563 1.29338 5.99764 0.894638 4.97448 0.894638C2.82929 0.894638 1.09003 2.6339 1.09003 4.77909C1.09003 6.92427 2.82929 8.66354 4.97448 8.66354C7.11966 8.66354 8.85893 6.92427 8.85893 4.77909C8.85893 4.51864 8.83212 4.2644 8.78337 4.01832Z" fill="#FFC107"/>
<path id="Vector_2" d="M1.53796 2.97107L2.8142 3.90703C3.15953 3.05206 3.99585 2.44842 4.97454 2.44842C5.56866 2.44842 6.10918 2.67255 6.52074 3.03866L7.61946 1.93994C6.92569 1.29338 5.9977 0.894638 4.97454 0.894638C3.48252 0.894638 2.18861 1.73698 1.53796 2.97107Z" fill="#FF3D00"/>
<path id="Vector_3" d="M4.97449 8.66355C5.97784 8.66355 6.88952 8.27958 7.57882 7.65515L6.37658 6.63781C5.97348 6.94437 5.48092 7.11018 4.97449 7.10977C3.96414 7.10977 3.10626 6.46554 2.78308 5.56648L1.51636 6.54245C2.15923 7.80043 3.4648 8.66355 4.97449 8.66355Z" fill="#4CAF50"/>
<path id="Vector_4" d="M8.78338 4.01833H8.47049V4.00221H4.97449V5.55599H7.16978C7.01658 5.98647 6.74062 6.36263 6.376 6.63801L6.37658 6.63762L7.57882 7.65495C7.49375 7.73225 8.85894 6.72133 8.85894 4.7791C8.85894 4.51865 8.83213 4.26441 8.78338 4.01833Z" fill="#1976D2"/>
</g>
<defs>
<clipPath id="clip0_6_34">
<rect width="9.32268" height="9.32268" fill="white" transform="translate(0.313202 0.117737)"/>
</clipPath>
</defs>
</svg>
